<?xml version="1.0" standalone="no"?>
<!DOCTYPE svg PUBLIC "-//W3C//DTD SVG 1.1//EN" "http://www.w3.org/Graphics/SVG/1.1/DTD/svg11.dtd" >
<svg xmlns="http://www.w3.org/2000/svg">
<metadata>Generated by IcoMoon</metadata>
<defs>
<font id="pall-iconset" horiz-adv-x="1024">
<font-face units-per-em="1024" ascent="960" descent="-64" />
<missing-glyph horiz-adv-x="1024" />
<glyph unicode="&#x20;" horiz-adv-x="512" d="" />
<glyph unicode="&#xe900;" glyph-name="chemical" horiz-adv-x="1011" d="M749.832-64l-260.955 151.948v300.594l260.955 151.948 260.955-151.948v-300.594l-260.955-151.948zM521.91 104.465l227.923-132.129 227.923 132.129v264.258l-227.923 132.129-227.923-132.129v-264.258zM571.458 338.994l178.374 102.4 175.071-102.4v-204.8l-175.071-102.4-178.374 102.4zM260.955-64l-260.955 148.645v300.594l260.955 151.948 260.955-151.948v-300.594l-260.955-148.645zM33.032 104.465l227.923-132.129 227.923 132.129v264.258l-227.923 132.129-227.923-132.129v-264.258zM82.581 338.994l178.374 102.4 178.374-102.4v-204.8l-178.374-102.4-178.374 102.4zM505.394 355.51l-260.955 151.948v300.594l260.955 151.948 260.955-151.948v-300.594l-260.955-151.948zM277.471 527.277l227.923-132.129 227.923 132.129v264.258l-227.923 132.129-227.923-132.129v-264.258zM327.019 761.806l178.374 102.4 178.374-102.4v-204.8l-178.374-102.4-178.374 102.4z" />
<glyph unicode="&#xe901;" glyph-name="laboratory" d="M899.2-70.4h-707.2v806.4c0 6.4-3.2 12.8-9.6 19.2l-70.4 64 41.6 48 70.4-64c22.4-16 32-41.6 32-67.2v-745.6h579.2v851.2h64v-912zM777.6 470.4c0 12.8-16 9.6-38.4 19.2-57.6 28.8-121.6 44.8-188.8 48-80-3.2-163.2-51.2-246.4-67.2v-124.8h208v-57.6h-208v-89.6h208v-57.6h-208v-76.8h473.6v358.4c0 22.4 0 38.4 0 48zM527.69 724.87c27.393-47.445 11.138-108.114-36.307-135.507s-108.114-11.138-135.507 36.307c-27.393 47.445-11.138 108.114 36.307 135.507s108.114 11.138 135.507-36.307zM724.348 835.535c29.705-25.086 33.449-69.503 8.364-99.208s-69.503-33.449-99.208-8.364c-29.705 25.086-33.449 69.503-8.364 99.208s69.503 33.449 99.208 8.364zM544.301 949.862c21.604-18.244 24.327-50.547 6.083-72.151s-50.547-24.327-72.151-6.083c-21.604 18.244-24.327 50.547-6.083 72.151s50.547 24.327 72.151 6.083z" />
<glyph unicode="&#xe902;" glyph-name="login" d="M89.043 474.713h854.817v-552.070h-854.817v552.070zM872.626 278.817h-133.565v325.009c0 120.209-102.4 222.609-222.609 222.609s-222.609-102.4-222.609-222.609v-307.2h-133.565v307.2c0 195.896 160.278 356.174 356.174 356.174s356.174-160.278 356.174-356.174v-325.009z" />
<glyph unicode="&#xe903;" glyph-name="shop" d="M945.493 284.16h-720.213l-92.16 488.107h-133.12v68.267h191.147l92.16-488.107h604.16l40.96 368.64h98.987v-68.267h-37.547zM498.347 543.573c0-20.736-16.81-37.547-37.547-37.547s-37.547 16.81-37.547 37.547c0 20.736 16.81 37.547 37.547 37.547s37.547-16.81 37.547-37.547zM399.36 441.173c0-20.736-16.81-37.547-37.547-37.547s-37.547 16.81-37.547 37.547c0 20.736 16.81 37.547 37.547 37.547s37.547-16.81 37.547-37.547zM378.88 649.387c0-20.736-16.81-37.547-37.547-37.547s-37.547 16.81-37.547 37.547c0 20.736 16.81 37.547 37.547 37.547s37.547-16.81 37.547-37.547zM453.973 137.387c0-54.669-44.318-98.987-98.987-98.987s-98.987 44.318-98.987 98.987c0 54.669 44.318 98.987 98.987 98.987s98.987-44.318 98.987-98.987zM925.013 137.387c0-54.669-44.318-98.987-98.987-98.987s-98.987 44.318-98.987 98.987c0 54.669 44.318 98.987 98.987 98.987s98.987-44.318 98.987-98.987zM720.213 543.573c0-20.736-16.81-37.547-37.547-37.547s-37.547 16.81-37.547 37.547c0 20.736 16.81 37.547 37.547 37.547s37.547-16.81 37.547-37.547zM610.987 441.173c0-20.736-16.81-37.547-37.547-37.547s-37.547 16.81-37.547 37.547c0 20.736 16.81 37.547 37.547 37.547s37.547-16.81 37.547-37.547zM610.987 649.387c0-20.736-16.81-37.547-37.547-37.547s-37.547 16.81-37.547 37.547c0 20.736 16.81 37.547 37.547 37.547s37.547-16.81 37.547-37.547zM822.613 441.173c0-20.736-16.81-37.547-37.547-37.547s-37.547 16.81-37.547 37.547c0 20.736 16.81 37.547 37.547 37.547s37.547-16.81 37.547-37.547zM839.68 649.387c0-20.736-16.81-37.547-37.547-37.547s-37.547 16.81-37.547 37.547c0 20.736 16.81 37.547 37.547 37.547s37.547-16.81 37.547-37.547z" />
<glyph unicode="&#xe904;" glyph-name="checkmark" d="M381.673 52.364l-381.673 381.673 162.909 167.564 218.764-218.764 488.727 484.073 162.909-162.909z" />
<glyph unicode="&#xe905;" glyph-name="download" horiz-adv-x="1025" d="M0.831 960l512-369.039 512 369.039v-313.351l-512-368.208-512 369.039s0 312.519 0 312.519zM0 80.623h1023.169v-145.455h-1023.169z" />
<glyph unicode="&#xe906;" glyph-name="print" d="M306.735 205.498h430.545v-46.080h-430.545v46.080zM856.902 646.284v220.625h-670.255v-220.625h-186.182v-405.411h186.182v-195.956h670.255v195.025h186.182v405.411zM256 798.022h531.549v-151.738h-531.549zM787.549 114.735h-531.549v126.138h531.549zM880.64 404.247h-99.607v99.142h99.142z" />
<glyph unicode="&#xe907;" glyph-name="arrow" d="M345.865-64.706l353.457 512.353-353.457 512.353h300.668l353.457-512.353-353.457-512.353zM414.897 447.647c0-109.695-88.926-198.621-198.621-198.621s-198.621 88.926-198.621 198.621c0 109.695 88.926 198.621 198.621 198.621s198.621-88.926 198.621-198.621z" />
<glyph unicode="&#xe908;" glyph-name="location" d="M512 961.024c-197.939 0-358.4-160.461-358.4-358.4 0-199.68 358.4-665.6 358.4-665.6s358.4 465.92 358.4 665.6c0 197.939-160.461 358.4-358.4 358.4zM512 449.024c-84.831 0-153.6 68.769-153.6 153.6s68.769 153.6 153.6 153.6c84.831 0 153.6-68.769 153.6-153.6 0.014-0.768 0.022-1.674 0.022-2.582 0-83.417-67.623-151.040-151.040-151.040-0.908 0-1.814 0.008-2.718 0.024z" />
<glyph unicode="&#xe909;" glyph-name="share" d="M729.722 255.878c-0.043 0-0.095 0-0.147 0-33.754 0-65.059-10.488-90.832-28.383l-207.444 163.698c6.771 17.031 10.696 36.766 10.696 57.417s-3.926 40.386-11.072 58.498l205.176 163.247c26.008-19.122 58.667-30.601 94.007-30.601 88.197 0 159.695 71.498 159.695 159.695s-71.498 159.695-159.695 159.695c-88.197 0-159.695-71.498-159.695-159.695 0-18.55 3.163-36.362 8.979-52.925l-208.312-165.891c-24.927 16.822-55.644 26.852-88.703 26.852-88.332 0-159.939-71.607-159.939-159.939s71.607-159.939 159.939-159.939c33.784 0 65.121 10.475 90.941 28.353l207.439-163.7c-6.486-16.726-10.244-36.084-10.244-56.32 0-88.332 71.607-159.939 159.939-159.939s159.939 71.607 159.939 159.939c0 88.33-71.605 159.937-159.935 159.939z" />
<glyph unicode="&#xe90a;" glyph-name="mail" d="M509.977 288.711v0 0l-509.977 362.698v-527.55h1019.955v527.55l-509.977-362.698zM1014.898 776.691h-1009.715l504.794-358.021 504.92 358.021z" />
<glyph unicode="&#xe90b;" glyph-name="phone2" d="M672.278 960h-328.348c-42.415 0-76.8-34.385-76.8-76.8v-863.944c0-42.415 34.385-76.8 76.8-76.8h328.348c42.415 0 76.8 34.385 76.8 76.8v863.944c0 42.415-34.385 76.8-76.8 76.8zM471.93 880.529h71.012c0.432 0.071 0.931 0.111 1.438 0.111 5.164 0 9.35-4.186 9.35-9.35s-4.186-9.35-9.35-9.35c-0.508 0-1.006 0.040-1.492 0.118l-70.514-0.007c-0.432-0.071-0.931-0.111-1.438-0.111-5.164 0-9.35 4.186-9.35 9.35s4.186 9.35 9.35 9.35c0.508 0 1.006-0.040 1.492-0.118zM507.77-29.496c-24.589 0-44.522 19.933-44.522 44.522s19.933 44.522 44.522 44.522c24.589 0 44.522-19.933 44.522-44.522s-19.933-44.522-44.522-44.522zM713.238 85.148h-409.6v727.485h409.6z" />
<glyph unicode="&#xe90c;" glyph-name="arrow-next" horiz-adv-x="1045" d="M518.4 960c-281.6-2.133-507.733-230.4-505.6-512-2.133-281.6 224-509.867 505.6-512 281.6 2.133 507.733 230.4 505.6 512 2.133 281.6-224 509.867-505.6 512zM509.867 162.133h-142.933l230.4 285.867-230.4 285.867h142.933l230.4-285.867-230.4-285.867z" />
<glyph unicode="&#xe90d;" glyph-name="user" d="M888.967 213.568c-78.769 41.26-48.762 11.253-146.286 52.513s-120.029 56.264-120.029 56.264v93.773c0 0 37.509 30.007 48.762 120.029 22.505-7.502 30.007 26.256 30.007 48.762s15.004 86.271-15.004 82.52c7.502 45.011 11.253 82.52 7.502 105.026-7.502 75.018-56.264 150.037-180.044 157.538-108.777-11.253-176.293-86.271-183.795-161.289 0-22.505 3.751-60.015 7.502-105.026-26.256 7.502-15.004-60.015-15.004-82.52s7.502-56.264 30.007-48.762c11.253-90.022 48.762-120.029 48.762-120.029v-97.524c0 0-22.505-15.004-120.029-56.264s-67.516-7.502-146.286-48.762c-123.78-63.766-123.78-240.059-123.78-240.059h1001.495c0 0 0 176.293-123.78 243.81z" />
<glyph unicode="&#xe90e;" glyph-name="arrow-down-dotted" horiz-adv-x="1302" d="M815.729 92.203c-8.678-86.78-86.78-156.203-173.559-147.525s-156.203 86.78-147.525 173.559c0 78.102 69.424 147.525 156.203 147.525 95.458-8.678 164.881-86.78 164.881-173.559zM1024 439.322c-8.678-86.78-86.78-156.203-173.559-147.525s-156.203 86.78-147.525 173.559c8.678 86.78 78.102 147.525 164.881 147.525s156.203-78.102 156.203-173.559v0zM598.78 439.322c-8.678-86.78-86.78-156.203-173.559-147.525s-156.203 86.78-147.525 173.559c8.678 86.78 78.102 147.525 164.881 147.525s156.203-78.102 156.203-173.559c0 0 0 0 0 0v0zM815.729 786.441c-8.678-86.78-86.78-156.203-173.559-147.525s-156.203 86.78-147.525 173.559c0 78.102 69.424 147.525 156.203 147.525 95.458 0 164.881-78.102 164.881-173.559v0zM1301.695 786.441c-8.678-86.78-86.78-156.203-173.559-147.525s-156.203 86.78-147.525 173.559c8.678 86.78 78.102 147.525 156.203 147.525 95.458 0 164.881-78.102 164.881-173.559v0zM321.085 786.441c-8.678-86.78-78.102-156.203-173.559-147.525-86.78 8.678-156.203 78.102-147.525 173.559 8.678 78.102 78.102 147.525 164.881 147.525s156.203-78.102 156.203-173.559v0z" />
<glyph unicode="&#xe90f;" glyph-name="search" horiz-adv-x="1048" d="M1048.267 80.305l-269.109 269.109c-32.791-62.196-79.524-113.093-136.26-149.867l261.064-263.546zM393.913 172.174c-217.552 0-393.913 176.361-393.913 393.913s176.361 393.913 393.913 393.913c217.552 0 393.913-176.361 393.913-393.913-0.246-217.453-176.46-393.666-393.889-393.913zM393.913 836.063c-148.917-0.247-269.542-121.024-269.542-269.975 0-149.103 120.872-269.975 269.975-269.975s269.975 120.872 269.975 269.975c-0.247 149.156-121.218 269.975-270.408 269.975 0 0 0 0 0 0z" />
<glyph unicode="&#xe910;" glyph-name="microelectronics" d="M361.135 598.865h301.729v-301.729h-301.729v301.729zM691.048 102.614h-55.262v-166.614h147.825v55.262h-92.563v111.352zM346.215-8.738h-92.84v-55.262h148.101v166.614h-55.262v-111.352zM491.277 102.614h55.262v-153.075h-55.262v153.075zM1024 565.155v148.101h-55.262v-92.84h-110.523v172.969h-165.785v110.523h92.84v55.262h-148.101v-165.785h-91.182v153.075h-55.262v-153.075h-89.248v165.785h-148.101v-55.262h92.84v-110.523h-178.772v-172.969h-110.523v92.84h-55.262v-148.101h165.785v-89.8h-153.904v-55.262h153.904v-89.248h-165.785v-148.93h55.262v92.84h110.523v-172.969h690.772v172.969h110.523v-92.84h55.262v148.101h-165.785v89.8h153.075v55.262h-153.075v89.248zM760.678 199.046h-497.356v497.356h497.356z" />
<glyph unicode="&#xe911;" glyph-name="medical" d="M1024 618.431v-341.215h-1024v341.215h1024zM682.431-64h-341.215v1024h341.215v-1024z" />
<glyph unicode="&#xe912;" glyph-name="industrialman" d="M922.453 362.951c-0.021 13.455-0.847 26.694-2.433 39.698l98.859 87.733c-9.368 30.639-20.572 57.020-34.135 81.931l-131.98-9.114c-16.051 20.248-33.796 37.993-53.373 53.53l6.155 133.35c-22.624 12.424-49.006 23.627-76.557 32.171l-92.972-97.593c-11.486 1.469-24.774 2.308-38.258 2.308s-26.772-0.838-39.815-2.466l-87.758 98.861c-30.637-9.363-57.018-20.567-81.928-34.134l9.11-131.697c-20.25-16.049-37.996-33.794-53.531-53.373l-133.634 6.156c-12.424-22.624-23.627-49.006-32.171-76.557l98.162-92.403c-1.485-11.486-2.333-24.773-2.333-38.258s0.848-26.771 2.492-39.809l-99.146-87.764c9.376-30.642 20.579-57.023 34.137-81.937l131.978 9.119c16.049-20.25 33.794-37.996 53.373-53.531l-6.156-133.634c22.63-12.438 49.013-23.642 76.569-32.175l92.391 97.882c11.486-1.469 24.774-2.308 38.258-2.308s26.772 0.838 39.815 2.466l87.758-98.861c30.638 9.366 57.019 20.57 81.929 34.134l-8.258 131.981c20.248 16.051 37.993 33.796 53.53 53.373l133.634-6.155c12.419 22.623 23.622 49.004 32.17 76.553l-97.876 92.407c1.27 10.937 1.995 23.609 1.995 36.45 0 0.586-0.002 1.171-0.005 1.756zM598.756 135.396c-125.675 0-227.556 101.88-227.556 227.556s101.88 227.556 227.556 227.556c125.675 0 227.556-101.88 227.556-227.556-0.967-124.939-102.474-225.849-227.549-225.849-0.002 0-0.004 0-0.007 0zM729.316 364.658c0-72.106-58.454-130.56-130.56-130.56s-130.56 58.454-130.56 130.56c0 72.106 58.454 130.56 130.56 130.56s130.56-58.454 130.56-130.56zM338.489 776.818c0.158 2.508 0.248 5.439 0.248 8.391s-0.090 5.883-0.267 8.79l41.548 38.57c-4.128 13.35-9.052 24.842-15.003 35.689l-56.393-3.832c-7.013 8.844-14.765 16.596-23.316 23.384l2.551 57.113c-9.86 5.455-21.352 10.379-33.356 14.143l-40.315-42.587c-4.996 0.637-10.775 1.001-16.64 1.001s-11.644-0.364-17.318-1.070l-38.291 43.020c-13.349-4.126-24.841-9.049-35.687-15.002l3.83-56.394c-8.844-7.013-16.596-14.765-23.384-23.316l-57.113 2.551c-5.455-9.86-10.379-21.352-14.143-33.356l42.587-40.315c-0.645-4.996-1.014-10.775-1.014-16.64s0.368-11.644 1.083-17.315l-43.021-38.294c4.131-13.352 9.054-24.843 15.004-35.691l56.392 3.834c7.013-8.844 14.765-16.596 23.316-23.384l-2.551-57.113c9.863-5.462 21.355-10.386 33.362-14.145l40.309 42.021c4.996-0.637 10.775-1.001 16.64-1.001s11.644 0.364 17.318 1.070l38.291-43.020c13.349 4.126 24.841 9.049 35.687 15.002l-3.83 56.394c8.844 7.013 16.596 14.765 23.384 23.316l57.113-2.551c5.453 9.859 10.376 21.351 14.142 33.354l-42.586 40.317c0.757 4.996 1.268 10.895 1.419 16.883zM196.267 677.831c-54.669 0-98.987 44.318-98.987 98.987s44.318 98.987 98.987 98.987c54.669 0 98.987-44.318 98.987-98.987 0-0.086 0-0.189 0-0.291 0-54.269-43.672-98.338-97.789-98.98zM254.293 776.818c0-31.419-25.47-56.889-56.889-56.889s-56.889 25.47-56.889 56.889c0 31.419 25.47 56.889 56.889 56.889s56.889-25.47 56.889-56.889z" />
<glyph unicode="&#xe913;" glyph-name="power" d="M515.313 960l-274.372-541.214h251.784l-198.475-496.941 496.64 650.541h-248.471l207.812 387.614h-234.918z" />
<glyph unicode="&#xe914;" glyph-name="biopharm" d="M311.138 265.255v-39.385h287.508c-10.286 14.67-20.761 27.52-32.076 39.572zM269.785 125.834v-39.385h373.366c-0.15 14.021-1.433 27.632-3.763 40.882zM716.012 827.668v39.385h-322.56c-5.334-11.218-9.934-24.357-13.126-38.038zM465.92 564.578h208.738v39.385h-245.366c11.682-14.313 23.662-27.167 36.426-39.197zM384.788 696.123h332.8v39.385h-341.465c0-8.665 0-17.329 3.545-26.388s2.363-6.695 5.12-12.997zM450.166 511.015c-105.551 81.92-150.055 152.025-154.388 243.003-0.622 6.081-0.977 13.141-0.977 20.284 0 58.39 23.706 111.243 62.019 149.459l-78.765 33.875c-39.659-49.691-63.637-113.416-63.637-182.742 0-8.596 0.369-17.106 1.091-25.516 6.62-141.084 94.053-229.305 179.912-296.653l66.954 48.049zM608.492 387.348l-66.166-46.080c123.668-99.643 209.132-202.437 147.692-377.698l74.437-25.994c74.831 213.465-27.963 343.434-155.963 449.772zM726.252 960l-78.769-33.871c39.978-38.161 64.834-91.865 64.834-151.374 0-7.303-0.374-14.518-1.105-21.628-4.258-89.693-48.763-160.191-154.313-242.111l-53.957-44.898c-164.628-123.668-351.311-263.877-257.575-530.511l74.437 25.994c-74.437 212.283 66.954 318.228 230.4 441.502l57.895 43.717c87.828 68.135 178.018 157.538 184.714 301.686 0.644 7.285 1.011 15.761 1.011 24.322 0 71.386-25.527 136.809-67.951 187.641z" />
<glyph unicode="&#xe915;" glyph-name="aerospace" d="M828.809-64l51.801 51.801-120.493 594.956 248.493 248.868c10.316 13.374 16.535 30.369 16.535 48.816 0 44.364-35.964 80.328-80.328 80.328-18.448 0-35.443-6.219-49.004-16.674l-247.179-248.729-596.457 120.493-51.801-51.801 474.088-242.862-242.862-242.862-128 25.9-51.801-51.801 172.669-93.091 93.091-172.669 51.801 51.801-25.9 128.375 242.862 242.862z" />
<glyph unicode="&#xe916;" glyph-name="foodandbev" horiz-adv-x="831" d="M0 960l153.958-1024h522.741l153.958 1024h-830.657zM748.308 888.392l-32.224-214.825h-601.51l-32.224 214.825h665.958zM540.643 168.727c0-50.126-39.385-89.51-89.51-89.51s-89.51 39.385-89.51 89.51c0 50.126 39.385 89.51 89.51 89.51s89.51-39.385 89.51-89.51zM476.196 430.098c0 35.804 28.643 64.448 64.448 64.448s64.448-28.643 64.448-64.448c0-35.804-28.643-64.448-64.448-64.448s-64.448 28.643-64.448 64.448zM404.587 498.126c-25.063 0-46.545 21.483-46.545 46.545s21.483 50.126 46.545 50.126c0 0 0 0 0 0 25.063 0 46.545-21.483 46.545-46.545s-21.483-50.126-46.545-50.126zM375.944 383.552c25.063 0 42.965-17.902 42.965-42.965s-17.902-42.965-42.965-42.965c-25.063 0-42.965 17.902-42.965 39.385 0 0 0 0 0 3.58v0c0 25.063 17.902 42.965 42.965 42.965z" />
<glyph unicode="&#xe917;" glyph-name="oilandgas" d="M512 960c-56.32 10.24-281.6-599.040-281.6-742.4-1.63-11.381-2.56-24.524-2.56-37.885 0-155.523 126.077-281.6 281.6-281.6s281.6 126.077 281.6 281.6c0 13.361-0.93 26.504-2.73 39.369 5.29 141.876-240.47 756.276-276.31 740.916zM517.12 2.56c-74.645 5.507-133.12 67.422-133.12 142.994 0 0.129 0 0.258 0.001 0.386-5.12 76.78 133.12 327.66 133.12 317.42s138.24-240.64 133.12-317.44c0-0.109 0-0.237 0-0.366 0-75.572-58.475-137.487-132.648-142.966z" />
<glyph unicode="&#xe918;" glyph-name="arrow-previous" horiz-adv-x="1045" d="M526.933 960c281.6-2.133 507.733-230.4 505.6-512 2.133-281.6-224-509.867-505.6-512-281.6 2.133-507.733 230.4-505.6 512-2.133 281.6 224 509.867 505.6 512zM535.467 162.133h142.933l-230.4 285.867 230.4 285.867h-142.933l-230.4-285.867 230.4-285.867z" />
<glyph unicode="&#xe919;" glyph-name="computer" horiz-adv-x="1736" d="M1474.207 147.862v647.356c0 35.31-29.425 64.736-70.621 64.736h-1071.080c-41.195 0-70.621-29.425-70.621-64.736v-647.356h-91.218c0 0 0-26.483 0-55.908s26.483-52.966 52.966-52.966h1288.828c29.425 0 52.966 26.483 52.966 52.966 0 29.425 0 55.908 0 55.908h-91.218zM1032.828 147.862c0 0 0 0 0-5.885 2.943-17.655-14.713-29.425-29.425-29.425h-279.54c-17.655 0-29.425 14.713-29.425 29.425 0 5.885 0 5.885 0 5.885h-382.529v603.218c0 35.31 29.425 64.736 70.621 64.736h971.034c41.195 0 70.621-29.425 70.621-64.736v-603.218h-391.356zM1071.080 377.379l-114.759 55.908c-20.598 11.77-29.425 20.598-29.425 32.368 0 23.54 52.966 58.851 52.966 141.241 0 70.621-41.195 117.701-111.816 117.701-79.448 0-114.759-61.793-114.759-117.701 0-79.448 52.966-114.759 52.966-141.241 0-11.77-5.885-23.54-29.425-32.368l-114.759-55.908c-41.195-17.655-20.598-97.103-20.598-97.103h447.264c2.943-2.943 23.54 76.506-17.655 97.103z" />
<glyph unicode="&#xe91a;" glyph-name="arrow-right-dotted" horiz-adv-x="819" d="M684.373 574.157c66.086-4.569 117.965-59.299 117.965-126.146 0-69.825-56.605-126.43-126.43-126.43-69.822 0-126.424 56.599-126.43 126.419 2.459 70.23 59.984 126.228 130.587 126.228 1.515 0 3.024-0.026 4.526-0.077zM406.46 741.615c66.124-4.57 118.033-59.33 118.033-126.215 0-69.863-56.635-126.498-126.498-126.498s-126.498 56.635-126.498 126.498c0 0.020 0 0.041 0 0.061 2.533 70.204 60.058 126.157 130.651 126.157 1.516 0 3.027-0.026 4.531-0.077zM406.46 406.767c66.124-4.57 118.033-59.33 118.033-126.215 0-69.863-56.635-126.498-126.498-126.498-69.859 0-126.492 56.629-126.498 126.487 2.35 70.395 59.981 126.567 130.73 126.567 1.489 0 2.971-0.025 4.448-0.074zM134.827 574.157c66.117-4.535 118.033-59.28 118.033-126.151 0-69.825-56.605-126.43-126.43-126.43-69.823 0-126.426 56.601-126.43 126.424 2.499 70.235 60.037 126.224 130.653 126.224 1.468 0 2.93-0.024 4.386-0.072zM134.827 960.137c66.117-4.535 118.033-59.28 118.033-126.151 0-69.825-56.605-126.43-126.43-126.43-69.823 0-126.426 56.601-126.43 126.424 2.572 70.175 60.081 126.087 130.648 126.087 1.469 0 2.933-0.024 4.391-0.072zM134.827 188.245c66.186-4.5 118.17-59.291 118.17-126.224 0-69.863-56.635-126.498-126.498-126.498s-126.497 56.634-126.498 126.497c2.5 70.272 60.069 126.29 130.721 126.29 1.444 0 2.882-0.023 4.314-0.070z" />
<glyph unicode="&#xe91b;" glyph-name="pall" horiz-adv-x="1976" d="M512 642.704h-194.704v-353.352h72.113v93.746h122.592c72.113 0 122.592 57.69 122.592 129.803s-50.479 129.803-122.592 129.803v0zM512 455.211h-122.592v115.38h115.38c43.268 0 50.479-36.056 50.479-57.69 0-28.845-7.211-50.479-43.268-57.69v0zM959.099-35.155c374.986 0 742.761 115.38 915.831 281.239 64.901 64.901 100.958 129.803 100.958 201.915s-36.056 151.437-100.958 223.549c-173.070 165.859-526.423 274.028-901.408 266.817-555.268-21.634-973.521-223.549-973.521-483.155 0-79.324 36.056-158.648 100.958-223.549 165.859-165.859 490.366-266.817 858.141-266.817v0zM64.901 455.211c0 216.338 403.831 396.62 901.408 411.042 353.352 7.211 692.282-86.535 850.93-245.183 57.69-57.69 86.535-115.38 86.535-173.070 0-223.549-447.099-418.254-944.676-418.254-338.93 0-656.225 100.958-807.662 245.183-57.69 57.69-86.535 115.38-86.535 180.282v0zM1009.577 282.141l-180.282 353.352h-43.268l-165.859-353.352h79.324l36.056 72.113h165.859l36.056-72.113h72.113zM757.183 426.366l50.479 100.958 50.479-100.958h-100.958zM1067.268 282.141h266.817v72.113h-194.704v288.451h-72.113zM1391.775 282.141h281.239v72.113h-209.127v288.451h-72.113zM1824.451 36.958c0-43.268-28.845-72.113-72.113-72.113s-72.113 28.845-72.113 72.113c0 43.268 36.056 72.113 72.113 72.113 43.268 0 72.113-28.845 72.113-72.113zM1701.859 36.958c0-28.845 21.634-57.69 57.69-57.69 28.845 0 57.69 28.845 57.69 57.69s-21.634 57.69-57.69 57.69-57.69-21.634-57.69-57.69zM1745.127 0.901h-14.423v72.113c7.211 0 14.423 0 28.845 0s21.634 0 21.634-7.211c7.211 0 7.211-7.211 7.211-14.423s-7.211-14.423-14.423-14.423v0c7.211 0 14.423-7.211 14.423-14.423 0-14.423 0-14.423 7.211-14.423h-14.423c0 0 0 7.211-7.211 14.423 0 7.211-7.211 14.423-14.423 14.423h-7.211v-36.056zM1745.127 44.169h7.211c7.211 0 14.423 0 14.423 7.211s-7.211 14.423-14.423 14.423c-7.211 0-7.211 0-7.211 0v-21.634z" />
<glyph unicode="&#xe91c;" glyph-name="back-arrow" horiz-adv-x="1510" d="M512-64l-512 512 512 512 121.492-121.492-303.729-303.729h1180.203v-173.559h-1180.203l303.729-303.729z" />
<glyph unicode="&#xe91d;" glyph-name="close" d="M1024 2.449l-445.395 445.708 445.395 445.395-66.449 66.449-445.708-445.395-445.395 445.395-66.449-66.449 445.395-445.395-445.395-445.708 66.449-66.449 445.395 445.395 445.708-445.395z" />
<glyph unicode="&#xe91e;" glyph-name="product-type" horiz-adv-x="1031" d="M59.397 960h912.334c33.262 0 59.397-26.135 59.397-59.397v0c0-33.262-26.135-59.397-59.397-59.397h-912.334c-33.262 0-59.397 26.135-59.397 59.397v0c0 33.262 26.135 59.397 59.397 59.397zM59.397 395.731h912.334c33.262 0 59.397-26.135 59.397-59.397v-339.749c0-33.262-26.135-59.397-59.397-59.397h-912.334c-33.262 0-59.397 26.135-59.397 59.397v339.749c0 32.074 26.135 59.397 59.397 59.397zM59.397 736.668h912.334c33.262 0 59.397-26.135 59.397-59.397v-118.794c0-33.262-26.135-59.397-59.397-59.397h-912.334c-33.262 0-59.397 26.135-59.397 59.397v118.794c0 33.262 26.135 59.397 59.397 59.397z" />
<glyph unicode="&#xe91f;" glyph-name="product-use" horiz-adv-x="1034" d="M409.124 277.333h-349.659c-33.301 0-59.466 26.165-59.466 59.466v563.735c0 33.301 26.165 59.466 59.466 59.466h349.659c33.301 0 59.466-26.165 59.466-59.466v-563.735c0-33.301-27.354-59.466-59.466-59.466zM409.124-64h-349.659c-33.301 0-59.466 26.165-59.466 59.466v115.364c0 33.301 26.165 59.466 59.466 59.466h349.659c33.301 0 59.466-26.165 59.466-59.466v-115.364c0-33.301-27.354-59.466-59.466-59.466zM624.39 618.667h349.659c33.301 0 59.466-26.165 59.466-59.466v-563.735c0-33.301-26.165-59.466-59.466-59.466h-349.659c-33.301 0-59.466 26.165-59.466 59.466v563.735c0 33.301 26.165 59.466 59.466 59.466zM624.39 960h349.659c33.301 0 59.466-26.165 59.466-59.466v-115.364c0-33.301-26.165-59.466-59.466-59.466h-349.659c-33.301 0-59.466 26.165-59.466 59.466v115.364c0 33.301 26.165 59.466 59.466 59.466z" />
<glyph unicode="&#xe920;" glyph-name="document" horiz-adv-x="817" d="M455.111 586.159v373.841h-455.111v-1024h817.342v650.159h-362.231zM97.524 834.612h276.317v-83.592h-276.317v83.592zM373.841 672.073v-83.592h-276.317v83.592h276.317zM97.524 344.671h434.213v-83.592h-434.213v83.592zM722.141 98.54h-624.617v83.592h624.617v-83.592zM722.141 423.619h-624.617v83.592h624.617v-83.592zM531.737 676.717h285.605l-285.605 283.283z" />
<glyph unicode="&#xe922;" glyph-name="segment" horiz-adv-x="1063" d="M379.996-64h-324.764c-30.93 0-55.232 24.302-55.232 55.232v324.764c0 30.93 24.302 55.232 55.232 55.232h324.764c30.93 0 55.232-24.302 55.232-55.232v-324.764c0-30.93-25.407-55.232-55.232-55.232zM343.543 678.317l91.685 91.685v61.86c0 30.93-24.302 55.232-55.232 55.232h-324.764c-30.93 0-55.232-24.302-55.232-55.232v-324.764c0-30.93 24.302-55.232 55.232-55.232h324.764c30.93 0 55.232 24.302 55.232 55.232v2.209l-91.685 91.685c-22.093 20.988-22.093 56.337 0 77.325zM703.655 240.88l-130.347 130.347h-4.419c-24.302 0-44.186-19.883-44.186-44.186v-346.857c0-24.302 19.883-44.186 44.186-44.186h346.857c24.302 0 44.186 19.883 44.186 44.186v346.857c0 24.302-19.883 44.186-44.186 44.186h-4.419l-130.347-130.347c-20.988-20.988-56.337-20.988-77.325 0zM703.655 335.879l-265.113 265.113c-22.093 22.093-22.093 56.337 0 78.429l265.113 265.113c22.093 22.093 56.337 22.093 78.429 0l265.113-265.113c22.093-22.093 22.093-56.337 0-78.429l-265.113-265.113c-22.093-22.093-57.441-22.093-78.429 0z" />
<glyph unicode="&#xe927;" glyph-name="cancel" d="M512 960c-283.826 0-512-228.174-512-512s228.174-512 512-512c283.826 0 512 228.174 512 512s-228.174 512-512 512zM645.565 192l-133.565 189.217-133.565-189.217h-128l189.217 267.13-178.087 250.435h133.565l122.435-178.087 116.87 178.087h133.565l-178.087-250.435 189.217-267.13h-133.565z" />
<glyph unicode="&#xe928;" glyph-name="globe" horiz-adv-x="1027" d="M513.296 960c-282.572 0-513.296-228.132-513.296-510.704s230.724-513.296 513.296-513.296 513.296 230.724 513.296 513.296-230.724 510.704-513.296 510.704zM49.256 438.927h202.208c0-88.142 15.554-173.691 36.294-243.686h-160.729c-46.663 69.995-75.18 152.952-77.772 243.686zM521.073 713.722v199.615c20.739 0 38.886-2.592 57.033-5.185 57.033-31.109 103.696-101.104 137.397-194.43 0 0-194.43 0-194.43 0zM720.689 698.167c23.332-69.995 36.294-155.544 36.294-243.686h-235.909v243.686h199.615zM505.519 913.337v-199.615h-194.43c31.109 93.327 80.365 163.322 137.397 194.43 18.147 2.592 36.294 5.185 57.033 5.185zM505.519 698.167v-243.686h-235.909c0 90.734 12.962 173.691 36.294 243.686h199.615zM251.463 454.481h-202.208c0 90.734 28.516 173.691 72.587 243.686h163.322c-20.739-72.587-33.701-155.544-33.701-243.686zM269.61 438.927h235.909v-243.686h-199.615c-20.739 69.995-36.294 152.952-36.294 243.686zM505.519 179.686v-191.838c-23.332 0-46.663 2.592-69.995 7.777-51.848 33.701-95.919 101.104-124.435 186.653l194.43-2.592zM521.073-14.744v191.838h194.43c-28.516-85.549-72.587-152.952-124.435-186.653-23.332-2.592-46.663-5.185-69.995-5.185zM521.073 195.241v243.686h235.909c0-90.734-12.962-173.691-36.294-243.686h-199.615zM775.129 438.927h202.208c-2.592-90.734-28.516-173.691-75.18-243.686h-163.322c20.739 69.995 33.701 152.952 36.294 243.686zM775.129 454.481c0 88.142-12.962 171.099-36.294 243.686h165.914c44.071-69.995 72.587-155.544 72.587-243.686h-202.208zM894.38 713.722h-160.729c-25.924 80.365-64.81 145.175-111.473 186.653 114.066-28.516 209.985-95.919 272.203-186.653zM401.823 900.375c-46.663-41.478-82.957-106.289-108.881-186.653h-158.137c62.218 90.734 155.544 158.137 267.018 186.653zM137.397 179.686h155.544c25.924-77.772 64.81-139.99 108.881-178.876-108.881 25.924-202.208 90.734-264.425 178.876zM624.77-1.782c44.071 38.886 82.957 101.104 108.881 178.876h158.137c-64.81-85.549-158.137-150.359-267.018-178.876z" />
<glyph unicode="&#xe929;" glyph-name="calendar" d="M15.004 911.238v-926.476h990.242v926.476h-990.242zM956.484 296.088h-112.527v120.029h112.527v-120.029zM67.516 416.117h112.527v-120.029h-112.527v120.029zM195.048 416.117h116.278v-120.029h-116.278v120.029zM453.861 296.088v120.029h116.278v-120.029h-116.278zM570.139 281.084v-120.029h-116.278v120.029h116.278zM453.861 431.121v116.278h116.278v-120.029h-116.278zM438.857 431.121h-112.527v116.278h112.527v-116.278zM438.857 416.117v-120.029h-112.527v120.029h112.527zM438.857 281.084v-120.029h-112.527v120.029h112.527zM438.857 149.802v-112.527h-112.527v112.527h112.527zM453.861 149.802h116.278v-112.527h-116.278v112.527zM585.143 149.802h112.527v-112.527h-112.527v112.527zM585.143 164.806v120.029h112.527v-120.029h-112.527zM585.143 296.088v120.029h112.527v-120.029h-112.527zM585.143 431.121v116.278h112.527v-120.029h-112.527zM712.674 547.399h116.278v-120.029h-116.278v120.029zM311.326 547.399v-120.029h-116.278v120.029h116.278zM311.326 281.084v-120.029h-116.278v120.029h116.278zM311.326 149.802v-112.527h-116.278v112.527h116.278zM180.044 37.275h-112.527v112.527h112.527v-112.527zM712.674 37.275v112.527h116.278v-112.527h-116.278zM712.674 164.806v120.029h116.278v-120.029h-116.278zM712.674 296.088v120.029h116.278v-120.029h-116.278zM843.956 431.121v116.278h112.527v-120.029h-112.527zM180.044 547.399v-120.029h-112.527v120.029h112.527zM180.044 281.084v-120.029h-112.527v120.029h112.527zM843.956 37.275v112.527h112.527v-112.527h-112.527zM843.956 164.806v120.029h112.527v-120.029h-112.527zM67.516 858.725h888.967v-255.062h-888.967v255.062zM300.073 731.194c0-37.288-30.228-67.516-67.516-67.516s-67.516 30.228-67.516 67.516c0 37.288 30.228 67.516 67.516 67.516s67.516-30.228 67.516-67.516zM858.96 731.194c0-37.288-30.228-67.516-67.516-67.516s-67.516 30.228-67.516 67.516c0 37.288 30.228 67.516 67.516 67.516s67.516-30.228 67.516-67.516z" />
<glyph unicode="&#xe92a;" glyph-name="map-pin" d="M513.875 937.495c-198.799 0-360.088-161.289-360.088-360.088 0-221.304 322.579-615.15 360.088-615.15 33.758 0 360.088 393.846 360.088 615.15-3.751 198.799-165.040 360.088-360.088 360.088zM513.875 416.117c-90.022 0-161.289 71.267-161.289 161.289s71.267 161.289 161.289 161.289c90.022 0 161.289-71.267 161.289-161.289s-75.018-161.289-161.289-161.289z" />
<glyph unicode="&#xe92b;" glyph-name="caution" horiz-adv-x="1149" d="M1134.161 111.257l-455.667 791.159c-22.533 35.051-60.088 57.584-102.65 57.584s-82.621-20.029-102.65-57.584l-458.171-791.159c-20.029-37.555-20.029-80.117 0-117.672 22.533-35.051 60.088-57.584 102.65-57.584h913.839c42.562 0 80.117 22.533 102.65 57.584 20.029 37.555 20.029 80.117 0 117.672zM1076.577 28.636c-10.015-15.022-25.037-25.037-42.562-25.037h-913.839c-17.526 0-35.051 10.015-42.562 25.037s-7.511 32.548 0 47.57l453.164 791.159c10.015 15.022 25.037 25.037 42.562 25.037s35.051-10.015 42.562-25.037l460.675-791.159c7.511-15.022 7.511-32.548 0-47.57zM620.91 291.521l17.526 373.046h-127.687l17.526-373.046zM575.844 236.44c-37.555 0-67.599-30.044-65.095-67.599 0-37.555 27.54-67.599 65.095-67.599s67.599 32.548 67.599 67.599c0 37.555-30.044 67.599-67.599 67.599z" />
</font>
</defs>
</svg>
